<?xml version="1.0" standalone="no"?><!DOCTYPE svg PUBLIC "-//W3C//DTD SVG 1.1//EN" "http://www.w3.org/Graphics/SVG/1.1/DTD/svg11.dtd"><svg height="994" node-id="1" sillyvg="true" template-height="994" template-width="765" version="1.1" viewBox="0 0 765 994" width="765" xmlns="http://www.w3.org/2000/svg" xmlns:xlink="http://www.w3.org/1999/xlink"><defs node-id="73"></defs><g node-id="233"><path d="M 113.52 648.59 C 112.67 656.88 96.58 776.47 93.25 805.45 C 89.92 834.43 68.31 910.00 62.14 920.48 C 68.59 924.48 87.71 935.16 87.71 935.16 C 87.71 935.16 145.99 845.36 148.37 836.81 C 150.75 828.26 160.88 786.92 160.88 786.92 L 146.94 640.59 Z" fill="#3b3744" fill-rule="nonzero" group-id="1" node-id="77" stroke="none" target-height="294.56995" target-width="98.740005" target-x="62.14" target-y="640.59"></path><path d="M 510.68 180.67 C 569.74 231.11 615.29 296.67 613.28 359.42 C 611.27 422.17 561.84 482.56 519.16 537.59 C 476.48 592.62 440.42 642.05 386.83 675.53 C 333.24 709.01 262.25 726.00 204.35 705.41 C 146.45 684.82 101.61 626.82 73.16 565.32 C 44.71 503.82 32.21 438.73 54.63 391.75 C 77.05 344.77 134.37 315.75 182.22 263.44 C 230.07 211.13 268.57 135.13 324.00 115.00 C 379.43 94.87 451.77 130.24 510.68 180.67 Z" fill="#f0f0f0" fill-rule="nonzero" group-id="1" node-id="79" stroke="none" target-height="631.13" target-width="583.07996" target-x="32.21" target-y="94.87"></path><path d="M 106.18 497.00 C 102.26 491.48 93.37 467.70 93.37 463.00 C 93.37 458.30 120.37 364.20 122.07 356.20 C 123.77 348.20 123.72 325.57 122.07 318.12 C 122.79 315.34 124.70 314.44 125.20 316.12 C 126.51 317.18 133.96 321.65 133.96 321.65 C 133.96 321.65 151.38 345.65 147.49 351.07 C 144.30 355.37 141.52 359.95 139.16 364.75 C 138.22 370.80 124.47 448.75 125.16 453.75 C 125.85 458.75 139.70 483.96 140.06 485.75 C 137.07 487.34 107.94 498.85 106.18 497.00 Z" fill="#ffffff" fill-rule="nonzero" group-id="1" node-id="81" stroke="none" target-height="184.41" target-width="58.010002" target-x="93.37" target-y="314.44"></path><path d="M 104.75 400.90 C 111.16 377.83 117.31 355.90 118.07 352.20 C 119.72 344.20 119.72 321.57 118.07 314.12 C 118.79 311.34 120.70 310.44 121.20 312.12" fill="none" group-id="1" node-id="83" stroke="#1b3c87" stroke-linecap="round" stroke-width="2" target-height="90.45999" target-width="16.449997" target-x="104.75" target-y="310.44"></path><path d="M 102.18 493.00 C 98.26 487.48 89.37 463.70 89.37 459.00 C 89.37 457.23 93.25 442.62 98.16 424.72" fill="none" group-id="1" node-id="85" stroke="#1b3c87" stroke-linecap="round" stroke-width="2" target-height="68.28" target-width="12.809998" target-x="89.37" target-y="424.72"></path><g node-id="234"><path d="M 74.63 121.95 L 548.99 -0.02 L 657.82 423.22 L 183.46 545.20 Z" fill="#eaf0ff" fill-rule="nonzero" group-id="1,2" node-id="89" stroke="none" target-height="545.22003" target-width="583.19" target-x="74.63" target-y="-0.02"></path></g><g node-id="235"><path d="M 74.63 121.94 L 198.41 90.12 L 307.23 513.36 L 183.46 545.19 Z" fill="#d8dfff" fill-rule="nonzero" group-id="1,3" node-id="94" stroke="none" target-height="455.07" target-width="232.6" target-x="74.63" target-y="90.12"></path></g><path d="M 191.87 167.37 C 191.87 189.23 174.14 206.96 152.28 206.96 C 130.42 206.96 112.69 189.23 112.69 167.37 C 112.69 145.51 130.42 127.78 152.28 127.78 C 174.14 127.78 191.87 145.51 191.87 167.37 Z" fill="#eaf0ff" fill-rule="nonzero" group-id="1" node-id="97" stroke="none" target-height="79.18001" target-width="79.17999" target-x="112.69" target-y="127.78"></path><path d="M 121.61 238.98 L 214.63 215.06 L 216.93 224.00 L 123.91 247.92 Z" fill="#eaf0ff" fill-rule="nonzero" group-id="1,4" node-id="101" stroke="none" target-height="32.86" target-width="95.31999" target-x="121.61" target-y="215.06"></path><path d="M 127.15 260.50 L 220.17 236.58 L 222.47 245.52 L 129.45 269.44 Z" fill="#eaf0ff" fill-rule="nonzero" group-id="1,5" node-id="106" stroke="none" target-height="32.86" target-width="95.32" target-x="127.15" target-y="236.58"></path><path d="M 339.21 264.86 C 339.21 270.94 334.29 275.86 328.21 275.86 C 322.13 275.86 317.21 270.94 317.21 264.86 C 317.21 258.78 322.13 253.86 328.21 253.86 C 334.29 253.86 339.21 258.78 339.21 264.86 Z" fill="#b2c3fb" fill-rule="nonzero" group-id="1" node-id="109" stroke="none" target-height="21.999985" target-width="22" target-x="317.21" target-y="253.86"></path><path d="M 352.85 253.74 L 529.17 208.41 L 531.47 217.34 L 355.15 262.68 Z" fill="#d8dfff" fill-rule="nonzero" group-id="1,6" node-id="113" stroke="none" target-height="54.26999" target-width="178.61996" target-x="352.85" target-y="208.41"></path><path d="M 276.28 107.55 L 489.18 52.81 L 525.14 192.69 L 312.25 247.43 Z" fill="#ffffff" fill-rule="nonzero" group-id="1,7" node-id="118" stroke="none" target-height="194.62" target-width="248.86002" target-x="276.28" target-y="52.81"></path><path d="M 390.08 462.73 C 390.08 468.81 385.16 473.73 379.08 473.73 C 373.00 473.73 368.08 468.81 368.08 462.73 C 368.08 456.65 373.00 451.73 379.08 451.73 C 385.16 451.73 390.08 456.65 390.08 462.73 Z" fill="#b2c3fb" fill-rule="nonzero" group-id="1" node-id="121" stroke="none" target-height="22" target-width="22" target-x="368.08" target-y="451.73"></path><path d="M 403.73 451.61 L 580.06 406.27 L 582.36 415.21 L 406.03 460.55 Z" fill="#d8dfff" fill-rule="nonzero" group-id="1,8" node-id="125" stroke="none" target-height="54.28" target-width="178.62997" target-x="403.73" target-y="406.27"></path><path d="M 327.16 305.42 L 540.05 250.67 L 576.02 390.55 L 363.12 445.30 Z" fill="#ffffff" fill-rule="nonzero" group-id="1,9" node-id="130" stroke="none" target-height="194.62999" target-width="248.86002" target-x="327.16" target-y="250.67"></path><path d="M 57.25 928.22 L 47.40 945.57 L 35.07 955.07 L 68.77 994.24 L 96.42 994.24 L 78.41 966.44 L 81.45 941.99" fill="#ffffff" fill-rule="nonzero" group-id="1" node-id="133" stroke="none" target-height="66.02002" target-width="61.35" target-x="35.07" target-y="928.22"></path><path d="M 183.85 955.86 L 188.69 973.40 L 185.28 994.24 L 259.68 994.24 L 216.00 968.45 L 217.06 955.86" fill="#ffffff" fill-rule="nonzero" group-id="1" node-id="135" stroke="none" target-height="38.380005" target-width="75.82999" target-x="183.85" target-y="955.86"></path><path d="M 92.17 769.00 C 90.43 782.58 89.01 793.86 88.25 800.45 C 84.93 829.45 63.31 905.03 57.14 915.45 C 63.59 919.45 82.71 930.13 82.71 930.13 C 82.71 930.13 140.99 840.33 143.37 831.78 C 145.75 823.23 155.88 781.89 155.88 781.89 L 141.94 635.59 L 108.52 643.59 C 108.10 647.74 103.86 679.71 99.32 714.26" fill="none" group-id="1" node-id="137" stroke="#1b3c87" stroke-linecap="round" stroke-width="2" target-height="294.53998" target-width="98.740005" target-x="57.14" target-y="635.59"></path><path d="M 171.36 943.77 L 220.67 943.77" fill="none" group-id="1" node-id="139" stroke="#1b3c87" stroke-linecap="round" stroke-width="2" target-height="0" target-width="49.309998" target-x="171.36" target-y="943.77"></path><path d="M 171.36 951.86 L 220.67 951.86" fill="none" group-id="1" node-id="141" stroke="#1b3c87" stroke-linecap="round" stroke-width="2" target-height="0" target-width="49.309998" target-x="171.36" target-y="951.86"></path><path d="M 246.60 990.24 L 255.68 990.24 L 212.00 964.45 L 213.06 951.86" fill="none" group-id="1" node-id="143" stroke="#1b3c87" stroke-linecap="round" stroke-width="2" target-height="38.380005" target-width="43.679993" target-x="212" target-y="951.86"></path><path d="M 179.85 951.86 L 184.69 969.40 L 181.28 990.24 L 224.91 990.24" fill="none" group-id="1" node-id="145" stroke="#1b3c87" stroke-linecap="round" stroke-width="2" target-height="38.380005" target-width="45.059998" target-x="179.85" target-y="951.86"></path><path d="M 50.81 912.12 L 85.64 931.93" fill="none" group-id="1" node-id="147" stroke="#1b3c87" stroke-linecap="round" stroke-width="2" target-height="19.809998" target-width="34.829998" target-x="50.81" target-y="912.12"></path><path d="M 47.35 920.86 L 82.19 940.68" fill="none" group-id="1" node-id="149" stroke="#1b3c87" stroke-linecap="round" stroke-width="2" target-height="19.820007" target-width="34.840004" target-x="47.35" target-y="920.86"></path><path d="M 76.79 966.12 L 74.41 962.44 L 77.45 937.99" fill="none" group-id="1" node-id="151" stroke="#1b3c87" stroke-linecap="round" stroke-width="2" target-height="28.130005" target-width="3.0399933" target-x="74.41" target-y="937.99"></path><path d="M 46.62 935.89 L 43.40 941.57 L 31.07 951.07 L 64.77 990.24 L 92.42 990.24 L 85.28 979.22" fill="none" group-id="1" node-id="153" stroke="#1b3c87" stroke-linecap="round" stroke-width="2" target-height="54.349976" target-width="61.35" target-x="31.07" target-y="935.89"></path><path d="M 128.26 655.84 C 128.26 660.84 132.42 720.28 146.66 767.34 C 156.07 812.28 183.36 948.77 183.36 948.77 L 218.06 948.77 L 205.57 643.87 Z" fill="#3b3744" fill-rule="nonzero" group-id="1" node-id="155" stroke="none" target-height="304.90002" target-width="89.8" target-x="128.26" target-y="643.87"></path><path d="M 160.88 856.69 C 169.96 901.77 178.36 943.77 178.36 943.77 L 213.06 943.77 L 200.57 638.87 L 123.26 650.87 C 123.26 655.87 127.42 715.31 141.66 762.37 C 143.80 772.58 146.86 787.51 150.31 804.50" fill="none" group-id="1" node-id="157" stroke="#1b3c87" stroke-linecap="round" stroke-width="2" target-height="304.90002" target-width="89.799995" target-x="123.26" target-y="638.87"></path><path d="M 247.09 521.38 C 255.09 525.62 280.55 537.13 283.62 537.13 C 286.69 537.13 330.62 522.63 332.94 518.20 C 335.26 513.77 337.66 501.97 341.68 500.79 C 345.70 499.61 343.43 509.99 343.43 509.99 C 345.81 509.21 383.38 499.42 383.21 499.62 C 384.21 505.00 363.88 520.25 361.76 520.80 C 351.31 532.52 286.24 569.00 283.41 569.00 C 280.58 569.00 236.62 557.00 233.85 556.00 C 234.40 551.91 243.29 524.27 247.09 521.38 Z" fill="#ffffff" fill-rule="nonzero" group-id="1" node-id="159" stroke="none" target-height="69.57999" target-width="150.35999" target-x="233.85" target-y="499.42"></path><path d="M 138.70 355.79 C 141.21 352.43 143.99 348.79 143.86 343.60" fill="none" group-id="1" node-id="161" stroke="#1b3c87" stroke-linecap="round" stroke-width="2" target-height="12.190002" target-width="5.2900085" target-x="138.7" target-y="343.6"></path><path d="M 135.38 480.00 C 133.38 473.92 121.51 454.16 121.20 449.00 C 120.90 444.00 132.72 374.12 134.86 363.35" fill="none" group-id="1" node-id="163" stroke="#1b3c87" stroke-linecap="round" stroke-width="2" target-height="116.649994" target-width="14.480003" target-x="120.9" target-y="363.35"></path><path d="M 140.76 552.06 C 126.93 558.06 95.76 508.34 102.54 500.43 C 112.02 489.53 138.72 481.14 147.87 484.67 C 152.49 491.00 164.28 541.91 140.76 552.06 Z" fill="#46dbc9" fill-rule="nonzero" group-id="1" node-id="165" stroke="none" target-height="76.91998" target-width="68.52" target-x="95.76" target-y="481.14"></path><path d="M 136.76 548.06 C 122.93 554.06 91.76 504.34 98.54 496.43 C 108.02 485.53 134.72 477.14 143.87 480.67 C 148.49 487.00 160.28 537.91 136.76 548.06 Z" fill="none" group-id="1" node-id="167" stroke="#1b3c87" stroke-linecap="round" stroke-width="2" target-height="76.91998" target-width="68.52" target-x="91.76" target-y="477.14"></path><path d="M 266.25 562.61 C 272.32 564.02 277.25 564.99 278.91 564.99 C 284.10 564.99 344.99 529.83 357.26 517.09 C 369.07 510.24 376.50 502.59 379.21 496.70" fill="none" group-id="1" node-id="169" stroke="#1b3c87" stroke-linecap="round" stroke-width="2" target-height="68.28998" target-width="112.95999" target-x="266.25" target-y="496.7"></path><path d="M 231.37 553.16 C 233.53 553.98 238.54 555.46 244.56 557.10" fill="none" group-id="1" node-id="171" stroke="#1b3c87" stroke-linecap="round" stroke-width="2" target-height="3.9400024" target-width="13.190002" target-x="231.37" target-y="553.16"></path><path d="M 306.70 524.55 C 317.59 520.55 327.84 516.28 328.94 514.20 C 331.30 509.77 333.66 497.97 337.68 496.79 C 341.70 495.61 339.43 505.99 339.43 505.99" fill="none" group-id="1" node-id="173" stroke="#1b3c87" stroke-linecap="round" stroke-width="2" target-height="28.940002" target-width="35" target-x="306.7" target-y="495.61"></path><path d="M 243.09 517.38 C 251.09 521.62 276.55 533.13 279.62 533.13 C 281.49 532.82 283.33 532.36 285.12 531.76" fill="none" group-id="1" node-id="175" stroke="#1b3c87" stroke-linecap="round" stroke-width="2" target-height="15.75" target-width="42.03" target-x="243.09" target-y="517.38"></path><path d="M 169.00 492.57 C 215.09 492.57 218.63 584.04 205.87 654.94 C 193.46 659.94 123.27 662.03 111.57 650.68 C 107.32 635.09 92.19 492.58 169.00 492.57 Z" fill="#46dbc9" fill-rule="nonzero" group-id="1" node-id="177" stroke="none" target-height="169.46002" target-width="126.44" target-x="92.19" target-y="492.57"></path><path d="M 107.50 552.07 C 114.02 518.29 129.93 488.57 165.00 488.57 C 196.56 488.57 208.17 531.47 208.26 581.28" fill="none" group-id="1" node-id="179" stroke="#1b3c87" stroke-linecap="round" stroke-width="2" target-height="92.71002" target-width="100.759995" target-x="107.5" target-y="488.57"></path><path d="M 110.30 648.59 C 109.31 648.08 108.39 647.44 107.57 646.68 C 106.09 641.27 103.31 620.59 103.51 595.88" fill="none" group-id="1" node-id="181" stroke="#1b3c87" stroke-linecap="round" stroke-width="2" target-height="52.710022" target-width="6.9900055" target-x="103.31" target-y="595.88"></path><path d="M 206.85 613.35 C 205.76 626.11 204.05 638.82 201.85 650.94 C 194.85 653.72 169.78 655.61 146.99 654.74" fill="none" group-id="1" node-id="183" stroke="#1b3c87" stroke-linecap="round" stroke-width="2" target-height="42.26001" target-width="59.86" target-x="146.99" target-y="613.35"></path><path d="M 176.74 512.41 C 181.05 496.83 244.51 503.92 246.64 514.91 C 249.48 530.15 238.49 558.16 229.27 563.47 C 220.76 563.12 169.40 538.93 176.74 512.41 Z" fill="#46dbc9" fill-rule="nonzero" group-id="1" node-id="185" stroke="none" target-height="66.639984" target-width="80.08" target-x="169.4" target-y="496.83"></path><path d="M 239.00 506.86 C 241.09 508.11 242.40 509.48 242.68 510.91 C 245.52 526.15 234.53 554.16 225.31 559.47 C 222.59 559.36 205.82 551.92 197.68 547.65" fill="none" group-id="1" node-id="187" stroke="#1b3c87" stroke-linecap="round" stroke-width="2" target-height="52.609985" target-width="47.84001" target-x="197.68" target-y="506.86"></path><path d="M 172.07 514.91 C 171.93 512.72 172.15 510.52 172.74 508.41 C 175.46 498.59 201.64 497.77 221.18 501.26" fill="none" group-id="1" node-id="189" stroke="#1b3c87" stroke-linecap="round" stroke-width="2" target-height="17.139984" target-width="49.25" target-x="171.93" target-y="497.77"></path><path d="M 172.40 502.90 C 172.40 506.97 146.60 507.49 146.60 502.90 L 146.60 466.30 L 172.40 466.30 Z" fill="#ffffff" fill-rule="nonzero" group-id="1" node-id="191" stroke="none" target-height="41.190002" target-width="25.799988" target-x="146.6" target-y="466.3"></path><path d="M 168.40 487.13 L 168.40 498.90" fill="none" group-id="1" node-id="193" stroke="#1b3c87" stroke-linecap="round" stroke-width="2" target-height="11.769989" target-width="0" target-x="168.4" target-y="487.13"></path><path d="M 157.79 502.08 C 150.68 502.44 142.60 501.47 142.60 498.90 L 142.60 462.30 L 168.40 462.30 L 168.40 478.73" fill="none" group-id="1" node-id="195" stroke="#1b3c87" stroke-linecap="round" stroke-width="2" target-height="40.140015" target-width="25.799988" target-x="142.6" target-y="462.3"></path><path d="M 191.86 439.59 C 191.86 458.75 180.05 474.28 165.48 474.28 C 150.91 474.28 139.10 458.75 139.10 439.59 C 139.10 420.43 150.91 404.90 165.48 404.90 C 180.05 404.90 191.86 420.43 191.86 439.59 Z" fill="#ffffff" fill-rule="nonzero" group-id="1" node-id="197" stroke="none" target-height="69.380005" target-width="52.759995" target-x="139.1" target-y="404.9"></path><path d="M 179.64 461.94 C 175.03 467.14 169.03 470.28 162.48 470.28 C 147.91 470.28 136.09 454.75 136.09 435.59 C 136.09 416.43 147.91 400.90 162.48 400.90 C 177.05 400.90 188.86 416.43 188.86 435.59 C 188.91 441.85 187.59 448.04 185.00 453.73" fill="none" group-id="1" node-id="199" stroke="#1b3c87" stroke-linecap="round" stroke-width="2" target-height="69.380005" target-width="52.820007" target-x="136.09" target-y="400.9"></path><path d="M 134.53 443.37 C 134.53 415.74 143.70 389.29 152.94 389.29 C 162.18 389.29 157.09 402.40 157.09 402.40 C 160.93 394.72 172.80 382.85 177.99 382.85 C 183.18 382.85 184.44 390.85 179.12 399.01 C 183.79 393.81 190.34 390.68 197.32 390.31 C 203.32 390.31 204.10 397.43 204.10 404.44 C 204.10 416.83 178.10 435.85 175.17 439.13 C 174.94 443.20 171.55 476.31 163.30 476.31 C 155.05 476.31 134.53 474.28 134.53 443.37 Z" fill="#ecc953" fill-rule="nonzero" group-id="1" node-id="201" stroke="none" target-height="93.45999" target-width="69.57001" target-x="134.53" target-y="382.85"></path><path d="M 168.22 462.90 C 166.46 468.30 164.17 472.31 161.30 472.31 C 156.66 472.31 148.14 471.67 141.57 465.61" fill="none" group-id="1" node-id="203" stroke="#1b3c87" stroke-linecap="round" stroke-width="2" target-height="9.410004" target-width="26.649994" target-x="141.57" target-y="462.9"></path><path d="M 200.00 407.34 C 195.19 416.34 183.20 426.41 176.89 431.78" fill="none" group-id="1" node-id="205" stroke="#1b3c87" stroke-linecap="round" stroke-width="2" target-height="24.440002" target-width="23.11" target-x="176.89" target-y="407.34"></path><path d="M 188.48 387.58 C 190.68 386.80 192.99 386.37 195.32 386.31 C 200.32 386.31 201.69 391.26 202.01 396.96" fill="none" group-id="1" node-id="207" stroke="#1b3c87" stroke-linecap="round" stroke-width="2" target-height="10.649994" target-width="13.529999" target-x="188.48" target-y="386.31"></path><path d="M 132.57 436.00 C 133.27 409.62 142.08 385.27 150.94 385.27 C 160.17 385.27 155.09 398.38 155.09 398.38 C 158.93 390.70 170.80 378.83 175.99 378.83 C 181.18 378.83 182.44 386.83 177.12 394.99" fill="none" group-id="1" node-id="209" stroke="#1b3c87" stroke-linecap="round" stroke-width="2" target-height="57.170013" target-width="49.869995" target-x="132.57" target-y="378.83"></path><path d="M 184.76 443.41 C 184.76 448.04 181.00 451.80 176.37 451.80 C 171.74 451.80 167.98 448.04 167.98 443.41 C 167.98 438.78 171.74 435.02 176.37 435.02 C 181.00 435.02 184.76 438.78 184.76 443.41 Z" fill="#ffffff" fill-rule="nonzero" group-id="1" node-id="211" stroke="none" target-height="16.779999" target-width="16.779999" target-x="167.98" target-y="435.02"></path><path d="M 166.00 442.30 C 165.98 442.00 165.98 441.71 166.00 441.41 C 165.99 438.45 167.53 435.70 170.07 434.18 C 172.61 432.66 175.77 432.59 178.37 434.00" fill="none" group-id="1" node-id="213" stroke="#1b3c87" stroke-linecap="round" stroke-width="2" target-height="9.709991" target-width="12.389999" target-x="165.98" target-y="432.59"></path><path d="M 176.75 449.46 C 175.98 449.69 175.18 449.81 174.37 449.81 C 172.21 449.81 170.14 448.98 168.58 447.49" fill="none" group-id="1" node-id="215" stroke="#1b3c87" stroke-linecap="round" stroke-width="2" target-height="2.3200073" target-width="8.169998" target-x="168.58" target-y="447.49"></path><path d="M 658.41 108.74 L 603.17 108.74 L 630.79 156.57 L 658.41 108.74 Z" fill="none" group-id="1" node-id="217" stroke="#b6c6fc" stroke-linecap="round" stroke-width="2" target-height="47.83001" target-width="55.23999" target-x="603.17" target-y="108.74"></path><path d="M 26.11 167.36 L 45.88 180.10 L 20.77 219.09 L 0.99 206.35 Z" fill="none" group-id="1,10" node-id="221" stroke="#b6c6fc" stroke-linecap="round" stroke-width="2" target-height="51.729996" target-width="44.89" target-x="0.99" target-y="167.36"></path><path d="M 385.39 604.18 L 512.87 650.53 L 425.80 890.03 L 298.31 843.68 Z" fill="#eaf0ff" fill-rule="nonzero" group-id="1,11" node-id="226" stroke="none" target-height="285.85004" target-width="214.56" target-x="298.31" target-y="604.18"></path><path d="M 402.24 608.90 C 402.24 621.69 391.87 632.06 379.08 632.06 C 366.29 632.06 355.92 621.69 355.92 608.90 C 355.92 596.11 366.29 585.74 379.08 585.74 C 391.87 585.74 402.24 596.11 402.24 608.90 Z" fill="none" group-id="1" node-id="229" stroke="#b6c6fc" stroke-linecap="round" stroke-width="2" target-height="46.320007" target-width="46.319977" target-x="355.92" target-y="585.74"></path><path d="M 691.83 491.06 L 687.62 577.56 L 764.64 537.95 L 691.83 491.06 Z" fill="#eaf0ff" fill-rule="nonzero" group-id="1" node-id="231" stroke="none" target-height="86.5" target-width="77.02002" target-x="687.62" target-y="491.06"></path></g></svg>