<?xml version="1.0" standalone="no"?><!DOCTYPE svg PUBLIC "-//W3C//DTD SVG 1.1//EN" "http://www.w3.org/Graphics/SVG/1.1/DTD/svg11.dtd"><svg height="1080" node-id="1" sillyvg="true" template-height="1080" template-width="1080" version="1.1" viewBox="0 0 1080 1080" width="1080" xmlns="http://www.w3.org/2000/svg" xmlns:xlink="http://www.w3.org/1999/xlink"><defs node-id="113"><linearGradient gradientUnits="objectBoundingBox" id="linearGradient-1" node-id="5" spreadMethod="pad" x1="1.2094132" x2="-0.25048688" y1="0.494954" y2="0.494954"><stop offset="0" stop-color="#c8cacd" stop-opacity="0"></stop><stop offset="1" stop-color="#b2b4b8"></stop></linearGradient><linearGradient gradientUnits="objectBoundingBox" id="linearGradient-2" node-id="8" spreadMethod="pad" x1="0.5169359" x2="0.47718045" y1="0.0974362" y2="1.0007974"><stop offset="0" stop-color="#f4f5f5"></stop><stop offset="1" stop-color="#b3b5b9"></stop></linearGradient><linearGradient gradientUnits="objectBoundingBox" id="linearGradient-3" node-id="11" spreadMethod="pad" x1="0.49269038" x2="0.5171384" y1="0.074888974" y2="0.9985334"><stop offset="0" stop-color="#f3f4f4"></stop><stop offset="1" stop-color="#b3b5b9"></stop></linearGradient><linearGradient gradientUnits="objectBoundingBox" id="linearGradient-4" node-id="14" spreadMethod="pad" x1="0.4993659" x2="0.4993659" y1="1.0001063" y2="-0.44149366"><stop offset="0" stop-color="#f8f8f9"></stop><stop offset="1" stop-color="#e2e3e4"></stop></linearGradient><linearGradient gradientUnits="objectBoundingBox" id="linearGradient-5" node-id="17" spreadMethod="pad" x1="0.49995044" x2="0.49995044" y1="0.9963928" y2="0.028771166"><stop offset="0" stop-color="#f4f5f5" stop-opacity="0"></stop><stop offset="1" stop-color="#eeeff0"></stop></linearGradient><linearGradient gradientUnits="objectBoundingBox" id="linearGradient-8" node-id="26" spreadMethod="pad" x1="0.5234527" x2="0.4701875" y1="0.09366339" y2="0.9998581"><stop offset="0" stop-color="#f4f5f5"></stop><stop offset="1" stop-color="#b3b5b9"></stop></linearGradient><linearGradient gradientUnits="objectBoundingBox" id="linearGradient-9" node-id="29" spreadMethod="pad" x1="0.48885635" x2="0.52457744" y1="0.07504363" y2="0.9966593"><stop offset="0" stop-color="#f3f4f4"></stop><stop offset="1" stop-color="#b3b5b9"></stop></linearGradient><linearGradient gradientUnits="objectBoundingBox" id="linearGradient-10" node-id="32" spreadMethod="pad" x1="0.52245086" x2="0.46896598" y1="0.09786528" y2="1.0030867"><stop offset="0" stop-color="#f4f5f5"></stop><stop offset="1" stop-color="#b3b5b9"></stop></linearGradient><linearGradient gradientUnits="objectBoundingBox" id="linearGradient-11" node-id="35" spreadMethod="pad" x1="0.4876765" x2="0.52464366" y1="0.074530855" y2="0.9967368"><stop offset="0" stop-color="#f3f4f4"></stop><stop offset="1" stop-color="#b3b5b9"></stop></linearGradient><linearGradient gradientUnits="objectBoundingBox" id="linearGradient-12" node-id="38" spreadMethod="pad" x1="0.4999713" x2="0.4999713" y1="-0.000016993465" y2="0.999983"><stop offset="0" stop-color="#eeeff0"></stop><stop offset="1" stop-color="#d7d8da"></stop></linearGradient><linearGradient gradientUnits="objectBoundingBox" id="linearGradient-13" node-id="41" spreadMethod="pad" x1="0.1539238" x2="0.6342037" y1="0.50545347" y2="0.49495655"><stop offset="0" stop-color="#ffffff" stop-opacity="0.2278"></stop><stop offset="1" stop-color="#ffffff" stop-opacity="0.6991"></stop></linearGradient><linearGradient gradientUnits="objectBoundingBox" id="linearGradient-14" node-id="44" spreadMethod="pad" x1="0.35122585" x2="0.9799128" y1="0.350565" y2="0.5789464"><stop offset="0" stop-color="#e7e7e9"></stop><stop offset="1" stop-color="#fafafb"></stop></linearGradient><linearGradient gradientUnits="objectBoundingBox" id="linearGradient-15" node-id="47" spreadMethod="pad" x1="0.35729152" x2="0.61251855" y1="0.5757537" y2="0.50405955"><stop offset="0" stop-color="#fafafb"></stop><stop offset="1" stop-color="#e7e7e9"></stop></linearGradient><linearGradient gradientUnits="objectBoundingBox" id="linearGradient-16" node-id="50" spreadMethod="pad" x1="0.49983546" x2="1.2069423" y1="-0.00010541791" y2="0.70700145"><stop offset="0" stop-color="#fafafb"></stop><stop offset="1" stop-color="#d7d8da"></stop></linearGradient><linearGradient gradientUnits="objectBoundingBox" id="linearGradient-17" node-id="53" spreadMethod="pad" x1="0.743242" x2="0.2566791" y1="0.120996356" y2="0.7069458"><stop offset="0" stop-color="#eeeff0"></stop><stop offset="1" stop-color="#d7d8da"></stop></linearGradient></defs><g node-id="204"><g node-id="205"><path d="M 0.00 0.00 L 1080.00 0.00 L 1080.00 1080.00 L 0.00 1080.00 Z" fill="#ffffff" fill-opacity="0" fill-rule="nonzero" group-id="1,2" id="矩形" node-id="59" stroke="none" target-height="1080" target-width="1080" target-x="0" target-y="0"></path><g node-id="207"><path d="M 688.50 881.70 C 688.50 889.98 622.01 896.70 540.00 896.70 C 457.99 896.70 391.50 889.98 391.50 881.70 C 391.50 873.42 457.99 866.70 540.00 866.70 C 622.01 866.70 688.50 873.42 688.50 881.70 Z" fill="url(#linearGradient-1)" fill-opacity="0.331" fill-rule="nonzero" group-id="1,2,4" id="椭圆形" node-id="60" stroke="none" target-height="30" target-width="297" target-x="391.5" target-y="866.7"></path></g><g node-id="208"><g node-id="215"><path d="M 232.20 668.10 L 231.96 668.99 L 231.24 669.88 L 229.82 670.83 L 227.28 671.86 L 223.58 672.76 L 219.54 673.30 L 214.80 673.50 L 210.06 673.30 L 206.02 672.76 L 202.32 671.86 L 199.78 670.83 L 198.36 669.88 L 197.64 668.99 L 197.40 668.10 L 197.64 667.21 L 198.36 666.32 L 199.78 665.37 L 202.32 664.34 L 206.02 663.44 L 210.06 662.90 L 214.80 662.70 L 219.54 662.90 L 223.58 663.44 L 227.28 664.34 L 229.82 665.37 L 231.24 666.32 L 231.96 667.21 L 232.20 668.10 Z" fill="#9da0a6" fill-opacity="0.46670473" fill-rule="nonzero" group-id="1,2,5,12" id="椭圆形_1_" node-id="62" stroke="none" target-height="10.799988" target-width="34.800003" target-x="197.4" target-y="662.7"></path></g><g node-id="216"><path d="M 199.50 668.10 L 200.29 668.14 L 201.47 667.63 L 203.27 666.23 L 205.82 663.62 L 209.07 659.73 L 212.32 655.41 L 215.81 650.44 L 222.43 640.17 L 225.44 635.11 L 227.85 630.75 L 229.90 626.67 L 231.00 624.00 L 231.85 620.72 L 232.21 617.50 L 232.10 614.32 L 231.53 611.19 L 230.56 608.36 L 229.20 605.78 L 227.43 603.49 L 225.34 601.67 L 222.90 600.30 L 220.23 599.51 L 217.60 599.30 L 214.96 599.67 L 212.42 600.55 L 210.03 601.92 L 207.74 603.83 L 205.80 606.10 L 204.15 608.80 L 202.80 612.00 L 202.01 614.87 L 201.06 619.45 L 199.34 630.48 L 198.00 642.98 L 197.56 649.23 L 197.36 654.82 L 197.41 660.08 L 197.74 663.90 L 198.25 666.27 L 198.86 667.53 L 199.50 668.10 Z" fill="url(#linearGradient-2)" fill-opacity="0.4493241" fill-rule="nonzero" group-id="1,2,5,13" id="椭圆形_2_" node-id="63" stroke="none" target-height="68.84003" target-width="34.850006" target-x="197.36" target-y="599.3"></path></g><path d="M 200.40 668.10 L 201.09 667.63 L 201.82 666.55 L 202.56 664.52 L 203.31 661.16 L 203.97 656.39 L 204.40 651.25 L 204.69 645.29 L 204.82 632.79 L 204.45 620.47 L 203.64 609.91 L 203.07 605.54 L 202.50 602.70 L 201.21 598.88 L 199.53 595.57 L 197.47 592.70 L 194.99 590.19 L 192.32 588.28 L 189.43 586.90 L 187.13 586.24 L 184.81 585.95 L 182.44 586.03 L 180.00 586.50 L 177.68 587.38 L 175.59 588.56 L 173.71 590.05 L 172.02 591.87 L 170.17 594.61 L 168.76 597.72 L 167.78 601.23 L 167.32 604.86 L 167.38 608.64 L 168.00 612.60 L 168.81 615.36 L 170.33 619.45 L 174.55 629.03 L 180.00 639.92 L 185.98 650.70 L 189.04 655.71 L 191.83 659.93 L 194.63 663.71 L 196.86 666.21 L 198.45 667.55 L 199.58 668.08 L 200.40 668.10 Z" fill="url(#linearGradient-3)" fill-opacity="0.7794" fill-rule="nonzero" group-id="1,2,5" id="椭圆形_3_" node-id="64" stroke="none" target-height="82.14996" target-width="37.5" target-x="167.32" target-y="585.95"></path></g><g node-id="209"><path d="M 171.60 286.20 C 170.40 286.20 169.20 286.20 168.00 285.90 C 166.50 286.20 165.00 286.20 163.50 286.20 C 140.40 286.20 121.50 267.60 121.50 244.20 C 121.50 220.80 140.10 202.50 163.50 202.50 C 166.20 202.50 168.90 202.80 171.30 203.10 C 180.90 185.10 199.80 172.80 221.70 172.80 C 252.90 172.80 278.40 198.30 278.40 229.50 L 278.40 229.50 L 312.00 229.50 C 327.60 229.50 340.50 242.10 340.50 257.70 C 340.50 273.30 327.90 286.20 312.00 286.20 L 171.60 286.20 Z" fill="url(#linearGradient-4)" fill-opacity="0.7" fill-rule="nonzero" group-id="1,2,6" id="形状结合" node-id="65" stroke="none" target-height="113.40001" target-width="219" target-x="121.5" target-y="172.8"></path></g><g node-id="210"><path d="M 108.00 799.20 L 117.56 785.61 L 126.83 773.28 L 135.81 762.15 L 144.51 752.13 L 152.95 743.16 L 161.13 735.16 L 169.07 728.07 L 176.78 721.84 L 184.81 716.02 L 192.61 711.06 L 200.20 706.88 L 207.59 703.45 L 214.81 700.71 L 221.88 698.62 L 228.81 697.16 L 235.65 696.29 L 242.40 696.00 L 249.08 696.28 L 255.93 697.13 L 262.99 698.57 L 270.27 700.63 L 277.81 703.35 L 285.62 706.78 L 293.74 710.96 L 302.19 715.96 L 310.99 721.84 L 319.41 728.07 L 328.16 735.15 L 337.28 743.15 L 346.76 752.13 L 356.64 762.15 L 366.93 773.29 L 377.64 785.61 L 388.80 799.20 L 108.00 799.20 Z" fill="url(#linearGradient-5)" fill-rule="nonzero" group-id="1,2,7" id="路径" node-id="67" stroke="none" target-height="103.20001" target-width="280.8" target-x="108" target-y="696"></path><path d="M 274.20 799.20 L 283.21 782.76 L 292.09 767.69 L 300.82 753.91 L 309.42 741.36 L 317.88 729.96 L 326.21 719.63 L 334.41 710.32 L 342.48 701.96 L 350.43 694.50 L 358.27 687.88 L 366.01 682.04 L 373.66 676.95 L 381.22 672.55 L 388.72 668.81 L 396.16 665.70 L 403.57 663.19 L 410.96 661.26 L 418.34 659.89 L 425.75 659.07 L 433.20 658.80 L 441.30 659.10 L 450.35 660.04 L 460.46 661.72 L 471.73 664.20 L 484.26 667.61 L 498.17 672.02 L 513.58 677.56 L 530.60 684.35 L 549.35 692.50 L 569.98 702.14 L 592.62 713.40 L 617.40 726.43 L 644.48 741.38 L 674.00 758.38 L 706.12 777.60 L 741.00 799.20 L 274.20 799.20 Z" fill="none" group-id="1,2,7" id="路径-2" node-id="68" stroke="none" target-height="140.40002" target-width="466.8" target-x="274.2" target-y="658.8"></path><path d="M 972.00 799.20 L 961.47 784.72 L 951.28 771.60 L 941.43 759.74 L 931.90 749.08 L 922.67 739.53 L 913.74 731.02 L 905.09 723.48 L 896.70 716.85 L 887.96 710.66 L 879.49 705.38 L 871.28 700.94 L 863.29 697.30 L 855.50 694.39 L 847.89 692.17 L 840.44 690.62 L 833.12 689.70 L 825.90 689.40 L 818.67 689.69 L 810.72 690.59 L 801.98 692.18 L 792.37 694.53 L 781.82 697.72 L 770.24 701.85 L 757.55 707.01 L 743.66 713.32 L 728.48 720.86 L 711.91 729.78 L 693.86 740.17 L 674.23 752.18 L 652.92 765.93 L 629.81 781.55 L 604.80 799.20 L 972.00 799.20 Z" fill="none" group-id="1,2,7" id="路径-3" node-id="69" stroke="none" target-height="109.79999" target-width="367.2" target-x="604.8" target-y="689.4"></path></g><g node-id="211"><g node-id="217"><path d="M 823.50 595.20 L 823.31 595.89 L 822.75 596.59 L 821.66 597.32 L 819.68 598.13 L 816.81 598.83 L 813.68 599.24 L 810.00 599.40 L 806.32 599.24 L 803.19 598.83 L 800.32 598.13 L 798.34 597.32 L 797.25 596.59 L 796.69 595.89 L 796.50 595.20 L 796.69 594.51 L 797.25 593.81 L 798.34 593.08 L 800.32 592.27 L 803.19 591.57 L 806.32 591.16 L 810.00 591.00 L 813.68 591.16 L 816.81 591.57 L 819.68 592.27 L 821.66 593.08 L 822.75 593.81 L 823.31 594.51 L 823.50 595.20 Z" fill="#9da0a6" fill-opacity="0.6699" fill-rule="nonzero" group-id="1,2,8,14" id="椭圆形_4_" node-id="71" stroke="none" target-height="8.400024" target-width="27" target-x="796.5" target-y="591"></path></g><g node-id="218"><path d="M 798.30 595.20 L 798.94 595.22 L 799.88 594.86 L 801.27 593.87 L 803.24 592.00 L 805.73 589.23 L 808.23 586.15 L 810.90 582.60 L 815.97 575.27 L 820.13 568.53 L 821.72 565.62 L 822.60 563.70 L 823.30 561.34 L 823.59 559.05 L 823.51 556.81 L 823.07 554.61 L 822.33 552.61 L 821.29 550.79 L 819.95 549.18 L 818.40 547.89 L 816.60 546.90 L 814.64 546.33 L 812.66 546.19 L 810.62 546.48 L 808.65 547.14 L 806.78 548.14 L 804.98 549.52 L 803.41 551.16 L 802.09 553.08 L 801.00 555.30 L 800.37 557.24 L 799.61 560.44 L 798.30 568.24 L 797.29 577.16 L 796.80 585.66 L 796.83 589.43 L 797.06 592.18 L 797.42 593.89 L 797.85 594.79 L 798.30 595.20 Z" fill="url(#linearGradient-8)" fill-opacity="0.5765" fill-rule="nonzero" group-id="1,2,8,15" id="椭圆形_5_" node-id="72" stroke="none" target-height="49.02997" target-width="26.79004" target-x="796.8" target-y="546.19"></path></g><path d="M 797.70 595.20 L 798.34 594.79 L 798.99 593.81 L 799.65 591.95 L 800.27 588.86 L 800.77 584.57 L 801.05 579.98 L 801.19 574.84 L 801.03 564.53 L 800.43 555.43 L 799.96 551.65 L 799.50 549.30 L 798.57 546.67 L 797.29 544.34 L 795.66 542.27 L 793.72 540.47 L 791.62 539.07 L 789.34 538.03 L 786.94 537.41 L 784.54 537.27 L 782.10 537.60 L 779.80 538.45 L 777.79 539.69 L 776.02 541.34 L 774.57 543.30 L 773.46 545.49 L 772.68 547.96 L 772.29 550.51 L 772.33 553.15 L 772.80 555.90 L 773.56 558.17 L 775.06 561.71 L 779.19 569.96 L 784.35 579.04 L 787.11 583.47 L 789.71 587.34 L 792.33 590.86 L 794.44 593.27 L 795.95 594.60 L 796.98 595.14 L 797.70 595.20 Z" fill="url(#linearGradient-9)" fill-rule="nonzero" group-id="1,2,8" id="椭圆形_6_" node-id="73" stroke="none" target-height="57.929993" target-width="28.900024" target-x="772.29" target-y="537.27"></path></g><g node-id="212"><g node-id="219"><path d="M 870.60 885.60 L 870.36 886.48 L 869.62 887.38 L 868.18 888.33 L 865.59 889.36 L 861.83 890.26 L 857.72 890.80 L 852.90 891.00 L 848.08 890.80 L 843.97 890.26 L 840.21 889.36 L 837.62 888.33 L 836.18 887.38 L 835.44 886.48 L 835.20 885.60 L 835.44 884.72 L 836.18 883.82 L 837.62 882.87 L 840.21 881.84 L 843.97 880.94 L 848.08 880.40 L 852.90 880.20 L 857.72 880.40 L 861.83 880.94 L 865.59 881.84 L 868.18 882.87 L 869.62 883.82 L 870.36 884.72 L 870.60 885.60 Z" fill="#9da0a6" fill-opacity="0.5353596" fill-rule="nonzero" group-id="1,2,9,16" id="椭圆形_7_" node-id="75" stroke="none" target-height="10.799988" target-width="35.399963" target-x="835.2" target-y="880.2"></path></g><g node-id="220"><path d="M 840.30 886.50 L 841.19 886.56 L 842.47 886.12 L 844.32 884.91 L 846.99 882.58 L 850.42 879.01 L 853.87 874.98 L 857.70 870.17 L 861.50 865.12 L 865.32 859.79 L 872.39 849.22 L 878.04 839.87 L 880.17 835.84 L 881.40 833.10 L 882.57 829.09 L 883.07 825.20 L 882.94 821.38 L 882.21 817.62 L 880.95 814.22 L 879.16 811.12 L 877.46 809.03 L 875.54 807.26 L 873.36 805.78 L 870.90 804.60 L 868.28 803.84 L 865.69 803.48 L 863.12 803.50 L 860.52 803.92 L 857.19 805.02 L 854.06 806.69 L 851.08 808.98 L 848.50 811.71 L 846.30 814.93 L 844.50 818.70 L 843.59 821.56 L 842.52 826.01 L 841.56 830.93 L 840.60 836.84 L 838.97 849.54 L 838.35 856.13 L 837.89 862.49 L 837.62 868.69 L 837.59 874.06 L 837.83 879.05 L 838.31 882.60 L 838.92 884.76 L 839.59 885.95 L 840.30 886.50 Z" fill="url(#linearGradient-10)" fill-opacity="0.51706284" fill-rule="nonzero" group-id="1,2,9,17" id="椭圆形_8_" node-id="76" stroke="none" target-height="83.08002" target-width="45.47998" target-x="837.59" target-y="803.48"></path></g><path d="M 840.30 886.80 L 841.25 886.23 L 842.23 884.93 L 843.22 882.54 L 844.24 878.52 L 845.12 872.83 L 845.71 866.69 L 846.11 859.56 L 846.30 852.23 L 846.31 844.63 L 846.14 837.06 L 845.83 829.93 L 845.35 823.07 L 844.79 817.36 L 844.04 812.16 L 843.30 808.80 L 842.11 805.42 L 840.59 802.30 L 838.74 799.42 L 836.56 796.78 L 834.18 794.47 L 831.56 792.49 L 828.73 790.84 L 825.80 789.60 L 822.75 788.76 L 819.63 788.36 L 816.49 788.44 L 813.30 789.00 L 810.24 790.06 L 807.49 791.50 L 805.00 793.33 L 802.79 795.50 L 800.90 797.95 L 799.31 800.70 L 798.09 803.64 L 797.22 806.76 L 796.72 810.09 L 796.62 813.47 L 796.94 816.92 L 797.70 820.50 L 798.82 823.82 L 800.86 828.72 L 803.32 833.98 L 806.43 840.18 L 809.82 846.52 L 813.55 853.18 L 817.45 859.76 L 821.36 866.03 L 825.35 872.00 L 828.99 877.04 L 832.66 881.54 L 835.59 884.53 L 837.68 886.12 L 839.18 886.77 L 840.30 886.80 Z" fill="url(#linearGradient-11)" fill-opacity="0.8969" fill-rule="nonzero" group-id="1,2,9" id="椭圆形_9_" node-id="77" stroke="none" target-height="98.44" target-width="49.690002" target-x="796.62" target-y="788.36"></path></g></g><g node-id="206"><g node-id="213"><path d="M 237.60 746.00 L 237.60 772.70 L 407.10 743.60 L 541.50 785.90 L 674.40 748.40 L 845.10 770.90 L 845.10 746.00 L 674.40 699.80 L 407.10 694.10 Z" fill="#ccced1" fill-rule="nonzero" group-id="1,3,10" id="路径_1_" node-id="80" stroke="none" target-height="91.80005" target-width="607.5" target-x="237.6" target-y="694.1"></path><path d="M 234.90 748.10 L 408.90 716.90 L 540.00 758.90 L 669.60 720.80 L 845.10 745.10 L 747.00 597.80 L 658.20 575.30 L 540.00 606.20 L 433.50 575.30 L 336.60 592.40 Z" fill="url(#linearGradient-12)" fill-rule="nonzero" group-id="1,3,10" id="路径-20" node-id="81" stroke="none" target-height="183.60004" target-width="610.19995" target-x="234.9" target-y="575.3"></path><g node-id="221"><g node-id="223"><path d="M 355.80 608.30 L 286.20 712.70 L 423.30 686.30 L 542.40 734.00 L 665.40 695.60 L 800.10 712.70 L 733.80 611.30 L 654.60 594.20 L 542.40 624.80 L 443.10 594.20 Z" fill="url(#linearGradient-13)" fill-rule="nonzero" group-id="1,3,10,18,20" id="path-18" node-id="84" stroke="none" target-height="139.79999" target-width="513.89996" target-x="286.2" target-y="594.2"></path></g><g node-id="224"><path d="M 286.20 720.50 L 374.10 575.00 L 438.60 572.30 L 407.70 727.10 Z" fill="#f3f4f4" fill-rule="nonzero" group-id="1,3,10,18,21" id="路径_2_" node-id="86" stroke="none" target-height="154.79999" target-width="152.4" target-x="286.2" target-y="572.3"></path></g><g node-id="225"><path d="M 438.60 575.00 L 411.00 704.30 L 543.90 744.20 L 553.50 554.00 Z" fill="url(#linearGradient-14)" fill-rule="nonzero" group-id="1,3,10,18,22" id="路径-3_1_" node-id="88" stroke="none" target-height="190.20001" target-width="142.5" target-x="411" target-y="554"></path></g><g node-id="226"><path d="M 543.90 749.60 L 550.80 575.00 L 644.40 554.00 L 678.60 744.20 Z" fill="url(#linearGradient-15)" fill-rule="nonzero" group-id="1,3,10,18,23" id="路径-4" node-id="90" stroke="none" target-height="195.59998" target-width="134.69995" target-x="543.9" target-y="554"></path></g><g node-id="227"><path d="M 646.50 572.30 L 678.60 749.60 L 801.90 745.70 L 787.20 565.10 Z" fill="#f3f4f4" fill-rule="nonzero" group-id="1,3,10,18,24" id="路径-5" node-id="92" stroke="none" target-height="184.5" target-width="155.40002" target-x="646.5" target-y="565.1"></path></g><g node-id="228"><path d="M 276.90 646.40 L 438.60 627.20 L 501.90 657.50 L 501.90 718.10" fill="none" group-id="1,3,10,18,25" id="路径-6" node-id="94" stroke="#ffffff" stroke-linecap="butt" stroke-opacity="0.7873" stroke-width="6" target-height="90.89996" target-width="225" target-x="276.9" target-y="627.2"></path></g><g node-id="229"><path d="M 501.90 657.50 L 553.50 651.80 L 661.50 671.30 L 745.80 634.10" fill="none" group-id="1,3,10,18,26" id="路径-25" node-id="96" stroke="#ffffff" stroke-linecap="butt" stroke-opacity="0.6677" stroke-width="6" target-height="37.200012" target-width="243.9" target-x="501.9" target-y="634.1"></path></g><g node-id="230"><path d="M 344.40 707.00 L 370.50 638.30 L 389.40 594.20" fill="none" group-id="1,3,10,18,27" id="路径-7" node-id="98" stroke="#ffffff" stroke-linecap="butt" stroke-width="6" target-height="112.79999" target-width="45" target-x="344.4" target-y="594.2"></path></g><g node-id="231"><path d="M 451.50 697.40 L 462.00 638.30 L 521.70 599.60" fill="none" group-id="1,3,10,18,28" id="路径-8" node-id="100" stroke="#ffffff" stroke-linecap="butt" stroke-width="3" target-height="97.80005" target-width="70.20001" target-x="451.5" target-y="599.6"></path></g><g node-id="232"><path d="M 588.30 707.00 L 588.30 659.00 L 655.20 617.60 L 576.30 601.70" fill="none" group-id="1,3,10,18,29" id="路径-9" node-id="102" stroke="#ffffff" stroke-linecap="butt" stroke-width="3" target-height="105.29999" target-width="78.900024" target-x="576.3" target-y="601.7"></path></g><path d="M 759.30 715.40 L 724.20 646.40 L 686.40 599.60" fill="none" group-id="1,3,10,18,30" id="路径-10" node-id="104" stroke="#ffffff" stroke-linecap="butt" stroke-opacity="0.6988" stroke-width="6" target-height="115.80005" target-width="72.89996" target-x="686.4" target-y="599.6"></path></g></g><g node-id="214"><g node-id="222"><g node-id="234"><path d="M 662.27 323.23 L 667.37 328.71 L 671.99 334.37 L 676.15 340.22 L 679.86 346.27 L 683.17 352.59 L 686.03 359.01 L 688.44 365.54 L 690.41 372.21 L 691.95 379.01 L 693.05 385.83 L 693.71 392.69 L 693.93 399.60 L 693.71 406.51 L 693.05 413.37 L 691.95 420.19 L 690.41 426.99 L 688.44 433.66 L 686.03 440.19 L 683.17 446.61 L 679.86 452.93 L 676.15 458.98 L 671.99 464.83 L 667.37 470.49 L 662.27 475.97 L 662.16 476.07 L 662.06 476.18 L 585.90 552.34 L 509.53 475.97 L 504.43 470.49 L 499.81 464.83 L 495.65 458.98 L 491.94 452.93 L 488.63 446.61 L 485.77 440.19 L 483.36 433.66 L 481.39 426.99 L 479.85 420.19 L 478.75 413.37 L 478.09 406.51 L 477.87 399.60 L 478.09 392.69 L 478.75 385.83 L 479.85 379.01 L 481.39 372.21 L 483.36 365.54 L 485.77 359.01 L 488.63 352.59 L 491.94 346.27 L 495.65 340.22 L 499.81 334.37 L 504.43 328.71 L 509.53 323.23 L 515.01 318.13 L 520.67 313.51 L 526.52 309.35 L 532.57 305.64 L 538.89 302.33 L 545.31 299.47 L 551.84 297.06 L 558.51 295.09 L 565.31 293.55 L 572.13 292.45 L 578.99 291.79 L 585.90 291.57 L 592.81 291.79 L 599.67 292.45 L 606.49 293.55 L 613.29 295.09 L 619.96 297.06 L 626.49 299.47 L 632.91 302.33 L 639.23 305.64 L 645.28 309.35 L 651.13 313.51 L 656.79 318.13 L 662.27 323.23 Z" fill="url(#linearGradient-16)" fill-rule="nonzero" group-id="1,3,11,19,31" id="path-23" node-id="108" stroke="none" target-height="260.77002" target-width="216.06" target-x="477.87" target-y="291.57"></path></g><path d="M 662.40 331.20 L 667.51 336.69 L 672.14 342.36 L 676.31 348.22 L 680.02 354.28 L 683.35 360.61 L 686.21 367.03 L 688.62 373.58 L 690.60 380.26 L 692.15 387.06 L 693.25 393.88 L 693.90 400.75 L 694.12 407.66 L 693.90 414.58 L 693.24 421.44 L 692.14 428.26 L 690.60 435.04 L 688.62 441.71 L 686.21 448.24 L 683.35 454.64 L 680.02 460.94 L 676.31 466.98 L 672.14 472.81 L 667.51 478.45 L 662.40 483.90 L 662.36 483.94 L 662.10 484.20 L 585.90 560.40 L 509.40 484.20 L 504.29 478.71 L 499.66 473.04 L 495.49 467.18 L 491.77 461.12 L 488.45 454.79 L 485.59 448.37 L 483.18 441.82 L 481.20 435.14 L 479.65 428.34 L 478.55 421.52 L 477.90 414.65 L 477.68 407.74 L 477.90 400.82 L 478.56 393.96 L 479.66 387.14 L 481.20 380.36 L 483.18 373.69 L 485.59 367.16 L 488.45 360.76 L 491.77 354.46 L 495.49 348.42 L 499.66 342.59 L 504.29 336.95 L 509.40 331.50 L 514.88 326.39 L 520.56 321.76 L 526.42 317.59 L 532.48 313.87 L 538.81 310.55 L 545.24 307.69 L 551.79 305.27 L 558.47 303.29 L 565.27 301.74 L 572.10 300.63 L 578.98 299.97 L 585.90 299.74 L 592.83 299.95 L 599.70 300.60 L 606.53 301.68 L 613.33 303.21 L 620.01 305.17 L 626.56 307.57 L 632.99 310.41 L 639.32 313.70 L 645.38 317.39 L 651.25 321.53 L 656.92 326.12 L 662.40 331.20 Z" fill="url(#linearGradient-17)" fill-rule="nonzero" group-id="1,3,11,19,32" id="路径_3_" node-id="110" stroke="none" target-height="260.66003" target-width="216.44" target-x="477.68" target-y="299.74"></path></g><path d="M 622.46 399.26 L 622.26 403.07 L 621.71 406.69 L 620.82 410.17 L 619.59 413.51 L 617.45 417.76 L 614.84 421.63 L 611.75 425.15 L 608.23 428.24 L 604.36 430.85 L 600.11 432.99 L 596.77 434.22 L 593.29 435.11 L 589.66 435.66 L 585.86 435.86 L 582.06 435.66 L 578.44 435.11 L 574.96 434.22 L 571.62 432.99 L 567.37 430.85 L 563.50 428.24 L 559.98 425.15 L 556.89 421.63 L 554.28 417.76 L 552.14 413.51 L 550.91 410.17 L 550.02 406.69 L 549.47 403.07 L 549.26 399.26 L 549.47 395.46 L 550.02 391.84 L 550.91 388.36 L 552.14 385.02 L 554.28 380.77 L 556.89 376.90 L 559.98 373.38 L 563.50 370.29 L 567.37 367.68 L 571.62 365.54 L 574.96 364.31 L 578.44 363.42 L 582.06 362.87 L 585.86 362.66 L 589.67 362.87 L 593.29 363.42 L 596.77 364.31 L 600.11 365.54 L 604.36 367.68 L 608.23 370.29 L 611.75 373.38 L 614.84 376.90 L 617.45 380.77 L 619.59 385.02 L 620.82 388.36 L 621.71 391.84 L 622.26 395.46 L 622.46 399.26 Z" fill="#fafafb" fill-rule="nonzero" group-id="1,3,11" id="椭圆形_10_" node-id="111" stroke="none" target-height="73.19998" target-width="73.20001" target-x="549.26" target-y="362.66"></path></g></g></g></svg>